<svg width="123" height="32" viewBox="0 0 123 32" fill="none" xmlns="http://www.w3.org/2000/svg">
<g clip-path="url(#clip0_1_430)">
<path d="M32.0089 30.9329H27.1297V13.1413L18.5446 30.0371C18.3336 30.4676 18.0356 30.794 17.6507 31.0163C17.2783 31.2385 16.8747 31.3497 16.4402 31.3497C16.0181 31.3497 15.6208 31.2385 15.2484 31.0163C14.8883 30.794 14.6028 30.4676 14.3918 30.0371L5.76935 13.1413V30.9329H0.927414V3.37044C0.927414 2.74545 1.08881 2.18989 1.41161 1.70377C1.74682 1.21767 2.18135 0.891279 2.71521 0.724613C2.97592 0.655168 3.23664 0.634334 3.49736 0.662112C3.75809 0.676001 4.00638 0.738502 4.24228 0.849612C4.49059 0.946834 4.71405 1.09267 4.91269 1.28711C5.11134 1.46767 5.27895 1.68989 5.41552 1.95378L16.4402 23.3913L27.4649 1.95378C27.7505 1.426 28.1415 1.051 28.6382 0.828779C29.1472 0.606557 29.6748 0.571835 30.2211 0.724613C30.7426 0.891279 31.1709 1.21767 31.5061 1.70377C31.8413 2.18989 32.0089 2.74545 32.0089 3.37044V30.9329Z" fill="white"/>
<path d="M58.6209 15.8704C58.6209 16.6205 58.503 17.433 58.2671 18.3079C58.0312 19.1691 57.6463 19.9746 57.1124 20.7246C56.5911 21.4607 55.902 22.0788 55.0454 22.5788C54.2011 23.0788 53.1706 23.3287 51.954 23.3287H43.2198V18.1829H51.954C52.612 18.1829 53.1209 17.9607 53.481 17.5163C53.841 17.0579 54.021 16.4955 54.021 15.8288C54.021 15.1204 53.8162 14.5649 53.4065 14.1621C53.0093 13.7594 52.525 13.558 51.954 13.558H43.2198C42.5618 13.558 42.0528 13.7871 41.6928 14.2454C41.3328 14.6899 41.1527 15.2454 41.1527 15.9121V23.4747C41.1527 24.1968 41.3514 24.7594 41.7487 25.1621C42.1583 25.5649 42.6612 25.7663 43.2571 25.7663H51.954V30.9329H43.2198C42.5494 30.9329 41.8231 30.801 41.041 30.5371C40.2712 30.2732 39.5512 29.8496 38.8807 29.2662C38.2227 28.669 37.6702 27.8982 37.2233 26.9538C36.7763 25.9954 36.5528 24.8357 36.5528 23.4747V15.8704C36.5528 15.1204 36.6708 14.3149 36.9067 13.4538C37.1426 12.5788 37.5213 11.7732 38.0427 11.0371C38.5765 10.2871 39.2656 9.66211 40.1098 9.16211C40.9664 8.66211 42.0032 8.41212 43.2198 8.41212H51.954C52.6244 8.41212 53.3444 8.54405 54.1142 8.80795C54.8963 9.07184 55.6164 9.50239 56.2744 10.0996C56.9449 10.683 57.5035 11.4538 57.9504 12.4122C58.3974 13.3566 58.6209 14.5093 58.6209 15.8704Z" fill="white"/>
<path d="M80.1862 13.8288H71.7314V30.9329H66.8336V13.8288H60.5391V8.41212H66.8336V1.05795H71.7314V8.41212H80.1862V13.8288Z" fill="white"/>
<path d="M102.999 23.4747C102.999 24.2246 102.881 25.0371 102.645 25.9121C102.409 26.7732 102.024 27.5788 101.49 28.3287C100.97 29.0649 100.28 29.683 99.4231 30.1829C98.5793 30.683 97.5485 30.9329 96.3319 30.9329H87.598C86.9276 30.9329 86.2013 30.801 85.4191 30.5371C84.6494 30.2732 83.9293 29.8496 83.2589 29.2662C82.6009 28.669 82.0484 27.8982 81.6014 26.9538C81.1545 25.9954 80.931 24.8357 80.931 23.4747C80.931 22.7246 81.049 21.9121 81.2849 21.0371C81.5208 20.1621 81.8994 19.3566 82.4209 18.6205C82.9547 17.8704 83.6438 17.2454 84.488 16.7455C85.3446 16.2454 86.3814 15.9954 87.598 15.9954H96.3319V21.1621H87.598C86.94 21.1621 86.431 21.3913 86.0709 21.8496C85.7109 22.2941 85.5309 22.8496 85.5309 23.5163C85.5309 24.2246 85.7358 24.7802 86.1455 25.1829C86.5676 25.5718 87.0642 25.7663 87.6353 25.7663H96.3319C96.9898 25.7663 97.499 25.5441 97.8594 25.0996C98.2188 24.6551 98.399 24.0996 98.399 23.433V15.8704C98.399 15.1621 98.2007 14.5996 97.8031 14.1829C97.4189 13.7663 96.9278 13.558 96.3319 13.558H85.6985V8.41212H96.3319C97.0022 8.41212 97.723 8.54405 98.4925 8.80795C99.2743 9.07184 99.9942 9.50239 100.652 10.0996C101.323 10.683 101.882 11.4538 102.328 12.4122C102.776 13.3566 102.999 14.5093 102.999 15.8704V23.4747Z" fill="white"/>
<path d="M113.847 3.64961C113.847 4.02045 113.806 4.3517 113.724 4.64336C113.642 4.93503 113.53 5.19337 113.389 5.41837C113.251 5.6392 113.09 5.82878 112.908 5.98712C112.726 6.14545 112.534 6.27669 112.332 6.38087C112.135 6.48087 111.935 6.55378 111.73 6.59962C111.529 6.64545 111.339 6.66836 111.16 6.66836L114.194 9.59962H111.947L108.919 6.66836H107.875V5.04336H111.16C111.342 5.0267 111.508 4.98504 111.657 4.91837C111.81 4.84753 111.94 4.75378 112.048 4.63711C112.16 4.52045 112.246 4.38086 112.305 4.21837C112.365 4.0517 112.394 3.86211 112.394 3.64961V2.62462C112.394 2.53295 112.383 2.4642 112.361 2.41837C112.342 2.36836 112.316 2.33295 112.283 2.31212C112.253 2.28712 112.219 2.27253 112.182 2.26836C112.148 2.2642 112.117 2.26211 112.087 2.26211H107.293V9.59962H105.841V1.45586C105.841 1.34336 105.859 1.23711 105.896 1.13711C105.934 1.03712 105.984 0.949615 106.048 0.874615C106.115 0.799615 106.193 0.741282 106.282 0.699615C106.372 0.657949 106.468 0.637115 106.572 0.637115H112.087C112.412 0.637115 112.685 0.703782 112.908 0.837115C113.131 0.966281 113.313 1.13087 113.45 1.33087C113.592 1.5267 113.692 1.7392 113.752 1.96836C113.815 2.19754 113.847 2.41212 113.847 2.61212V3.64961Z" fill="white"/>
<path d="M122.662 9.59962H116.037C115.933 9.59962 115.835 9.57879 115.747 9.53711C115.657 9.49545 115.579 9.4392 115.511 9.36836C115.448 9.29337 115.398 9.20587 115.361 9.10587C115.323 9.00587 115.305 8.89753 115.305 8.78087V0.637115H116.758V7.97461H122.662V9.59962Z" fill="white"/>
</g>
<defs>
<clipPath id="clip0_1_430">
<rect width="123" height="32" fill="white"/>
</clipPath>
</defs>
</svg>
