<svg width="322" height="30" viewBox="0 0 322 30" fill="none" xmlns="http://www.w3.org/2000/svg">
<g clip-path="url(#clip0_1_635)">
<path d="M26.6719 29H3.50781C3.14323 29 2.80469 28.9349 2.49219 28.8047C2.17969 28.6745 1.90625 28.4987 1.67188 28.2773C1.45052 28.043 1.27474 27.7695 1.14453 27.457C1.01432 27.1445 0.949219 26.806 0.949219 26.4414V0.992188H6.02734V23.9219H26.6719V29Z" fill="white"/>
<path d="M59.3672 17.6719C59.3672 19.3776 59.0742 20.9466 58.4883 22.3789C57.9023 23.8112 57.0885 25.0482 56.0469 26.0898C55.0052 27.1315 53.7682 27.9453 52.3359 28.5312C50.9167 29.1042 49.3672 29.3906 47.6875 29.3906H40.8125C39.1328 29.3906 37.5768 29.1042 36.1445 28.5312C34.7122 27.9453 33.4753 27.1315 32.4336 26.0898C31.3919 25.0482 30.5716 23.8112 29.9727 22.3789C29.3867 20.9466 29.0938 19.3776 29.0938 17.6719V12.3203C29.0938 10.6276 29.3867 9.0651 29.9727 7.63281C30.5716 6.1875 31.3919 4.95052 32.4336 3.92188C33.4753 2.88021 34.7122 2.06641 36.1445 1.48047C37.5768 0.894531 39.1328 0.601562 40.8125 0.601562H47.6875C49.3672 0.601562 50.9167 0.894531 52.3359 1.48047C53.7682 2.06641 55.0052 2.88021 56.0469 3.92188C57.0885 4.95052 57.9023 6.1875 58.4883 7.63281C59.0742 9.0651 59.3672 10.6276 59.3672 12.3203V17.6719ZM54.2891 12.3203C54.2891 11.3177 54.1263 10.4128 53.8008 9.60547C53.4883 8.78516 53.0391 8.08854 52.4531 7.51562C51.8802 6.92969 51.1836 6.48047 50.3633 6.16797C49.556 5.84245 48.6641 5.67969 47.6875 5.67969H40.8125C39.8229 5.67969 38.918 5.84245 38.0977 6.16797C37.2904 6.48047 36.5938 6.92969 36.0078 7.51562C35.4219 8.08854 34.9661 8.78516 34.6406 9.60547C34.3281 10.4128 34.1719 11.3177 34.1719 12.3203V17.6719C34.1719 18.6745 34.3281 19.5859 34.6406 20.4062C34.9661 21.2135 35.4219 21.9102 36.0078 22.4961C36.5938 23.069 37.2904 23.5182 38.0977 23.8438C38.918 24.1562 39.8229 24.3125 40.8125 24.3125H47.6484C48.638 24.3125 49.5365 24.1562 50.3438 23.8438C51.1641 23.5182 51.8672 23.069 52.4531 22.4961C53.0391 21.9102 53.4883 21.2135 53.8008 20.4062C54.1263 19.5859 54.2891 18.6745 54.2891 17.6719V12.3203Z" fill="white"/>
<path d="M92.0234 26.4414C92.0234 26.806 91.9583 27.1445 91.8281 27.457C91.6979 27.7695 91.5156 28.043 91.2812 28.2773C91.0599 28.4987 90.793 28.6745 90.4805 28.8047C90.168 28.9349 89.8294 29 89.4648 29H71.1445C70.6758 29 70.168 28.9479 69.6211 28.8438C69.0872 28.7266 68.5534 28.5508 68.0195 28.3164C67.4987 28.082 66.9974 27.7826 66.5156 27.418C66.0339 27.0404 65.6042 26.5911 65.2266 26.0703C64.862 25.5365 64.569 24.9245 64.3477 24.2344C64.1263 23.5312 64.0156 22.7435 64.0156 21.8711V8.12109C64.0156 7.65234 64.0677 7.15104 64.1719 6.61719C64.2891 6.07031 64.4648 5.53646 64.6992 5.01562C64.9336 4.48177 65.2396 3.97396 65.6172 3.49219C65.9948 3.01042 66.444 2.58724 66.9648 2.22266C67.4987 1.84505 68.1107 1.54557 68.8008 1.32422C69.4909 1.10286 70.2721 0.992188 71.1445 0.992188H91.7891V6.07031H71.1445C70.4805 6.07031 69.9727 6.24609 69.6211 6.59766C69.2695 6.94922 69.0938 7.47005 69.0938 8.16016V21.8711C69.0938 22.5221 69.2695 23.0299 69.6211 23.3945C69.9857 23.7461 70.4935 23.9219 71.1445 23.9219H86.9453V17.5547H73.4297V12.4375H89.4648C89.8294 12.4375 90.168 12.5091 90.4805 12.6523C90.793 12.7826 91.0599 12.9648 91.2812 13.1992C91.5156 13.4336 91.6979 13.707 91.8281 14.0195C91.9583 14.319 92.0234 14.6445 92.0234 14.9961V26.4414Z" fill="white"/>
<path d="M126.711 17.6719C126.711 19.3776 126.418 20.9466 125.832 22.3789C125.246 23.8112 124.432 25.0482 123.391 26.0898C122.349 27.1315 121.112 27.9453 119.68 28.5312C118.26 29.1042 116.711 29.3906 115.031 29.3906H108.156C106.477 29.3906 104.921 29.1042 103.488 28.5312C102.056 27.9453 100.819 27.1315 99.7773 26.0898C98.7357 25.0482 97.9154 23.8112 97.3164 22.3789C96.7305 20.9466 96.4375 19.3776 96.4375 17.6719V12.3203C96.4375 10.6276 96.7305 9.0651 97.3164 7.63281C97.9154 6.1875 98.7357 4.95052 99.7773 3.92188C100.819 2.88021 102.056 2.06641 103.488 1.48047C104.921 0.894531 106.477 0.601562 108.156 0.601562H115.031C116.711 0.601562 118.26 0.894531 119.68 1.48047C121.112 2.06641 122.349 2.88021 123.391 3.92188C124.432 4.95052 125.246 6.1875 125.832 7.63281C126.418 9.0651 126.711 10.6276 126.711 12.3203V17.6719ZM121.633 12.3203C121.633 11.3177 121.47 10.4128 121.145 9.60547C120.832 8.78516 120.383 8.08854 119.797 7.51562C119.224 6.92969 118.527 6.48047 117.707 6.16797C116.9 5.84245 116.008 5.67969 115.031 5.67969H108.156C107.167 5.67969 106.262 5.84245 105.441 6.16797C104.634 6.48047 103.938 6.92969 103.352 7.51562C102.766 8.08854 102.31 8.78516 101.984 9.60547C101.672 10.4128 101.516 11.3177 101.516 12.3203V17.6719C101.516 18.6745 101.672 19.5859 101.984 20.4062C102.31 21.2135 102.766 21.9102 103.352 22.4961C103.938 23.069 104.634 23.5182 105.441 23.8438C106.262 24.1562 107.167 24.3125 108.156 24.3125H114.992C115.982 24.3125 116.88 24.1562 117.688 23.8438C118.508 23.5182 119.211 23.069 119.797 22.4961C120.383 21.9102 120.832 21.2135 121.145 20.4062C121.47 19.5859 121.633 18.6745 121.633 17.6719V12.3203Z" fill="white"/>
<path d="M136.848 12.4375H154.68V0.992188H159.758V29H154.68V17.5547H136.848V29H131.77V0.992188H136.848V12.4375Z" fill="white"/>
<path d="M195.109 17.6719C195.109 19.3776 194.816 20.9466 194.23 22.3789C193.645 23.8112 192.831 25.0482 191.789 26.0898C190.747 27.1315 189.51 27.9453 188.078 28.5312C186.659 29.1042 185.109 29.3906 183.43 29.3906H176.555C174.875 29.3906 173.319 29.1042 171.887 28.5312C170.454 27.9453 169.217 27.1315 168.176 26.0898C167.134 25.0482 166.314 23.8112 165.715 22.3789C165.129 20.9466 164.836 19.3776 164.836 17.6719V12.3203C164.836 10.6276 165.129 9.0651 165.715 7.63281C166.314 6.1875 167.134 4.95052 168.176 3.92188C169.217 2.88021 170.454 2.06641 171.887 1.48047C173.319 0.894531 174.875 0.601562 176.555 0.601562H183.43C185.109 0.601562 186.659 0.894531 188.078 1.48047C189.51 2.06641 190.747 2.88021 191.789 3.92188C192.831 4.95052 193.645 6.1875 194.23 7.63281C194.816 9.0651 195.109 10.6276 195.109 12.3203V17.6719ZM190.031 12.3203C190.031 11.3177 189.868 10.4128 189.543 9.60547C189.23 8.78516 188.781 8.08854 188.195 7.51562C187.622 6.92969 186.926 6.48047 186.105 6.16797C185.298 5.84245 184.406 5.67969 183.43 5.67969H176.555C175.565 5.67969 174.66 5.84245 173.84 6.16797C173.033 6.48047 172.336 6.92969 171.75 7.51562C171.164 8.08854 170.708 8.78516 170.383 9.60547C170.07 10.4128 169.914 11.3177 169.914 12.3203V17.6719C169.914 18.6745 170.07 19.5859 170.383 20.4062C170.708 21.2135 171.164 21.9102 171.75 22.4961C172.336 23.069 173.033 23.5182 173.84 23.8438C174.66 24.1562 175.565 24.3125 176.555 24.3125H183.391C184.38 24.3125 185.279 24.1562 186.086 23.8438C186.906 23.5182 187.609 23.069 188.195 22.4961C188.781 21.9102 189.23 21.2135 189.543 20.4062C189.868 19.5859 190.031 18.6745 190.031 17.6719V12.3203Z" fill="white"/>
<path d="M225.852 29H202.688C202.323 29 201.984 28.9349 201.672 28.8047C201.359 28.6745 201.086 28.4987 200.852 28.2773C200.63 28.043 200.454 27.7695 200.324 27.457C200.194 27.1445 200.129 26.806 200.129 26.4414V0.992188H205.207V23.9219H225.852V29Z" fill="white"/>
<path d="M257.531 17.2812C257.531 18.987 257.232 20.556 256.633 21.9883C256.047 23.4206 255.233 24.6576 254.191 25.6992C253.15 26.7279 251.913 27.5352 250.48 28.1211C249.048 28.707 247.492 29 245.812 29H232.102C231.737 29 231.398 28.9349 231.086 28.8047C230.773 28.6745 230.5 28.4987 230.266 28.2773C230.044 28.043 229.868 27.7695 229.738 27.457C229.608 27.1445 229.543 26.806 229.543 26.4414V3.55078C229.543 3.19922 229.608 2.86719 229.738 2.55469C229.868 2.24219 230.044 1.96875 230.266 1.73438C230.5 1.5 230.773 1.31771 231.086 1.1875C231.398 1.05729 231.737 0.992188 232.102 0.992188H245.812C247.492 0.992188 249.048 1.28516 250.48 1.87109C251.913 2.45703 253.15 3.27083 254.191 4.3125C255.233 5.34115 256.047 6.57812 256.633 8.02344C257.232 9.45573 257.531 11.0182 257.531 12.7109V17.2812ZM252.453 12.7109C252.453 11.7214 252.29 10.8164 251.965 9.99609C251.652 9.17578 251.203 8.47917 250.617 7.90625C250.031 7.32031 249.328 6.87109 248.508 6.55859C247.701 6.23307 246.802 6.07031 245.812 6.07031H234.621V23.9219H245.812C246.802 23.9219 247.701 23.7656 248.508 23.4531C249.328 23.1276 250.031 22.6784 250.617 22.1055C251.203 21.5195 251.652 20.8229 251.965 20.0156C252.29 19.1953 252.453 18.2839 252.453 17.2812V12.7109Z" fill="white"/>
<path d="M285.539 17.5547H269.504V12.4375H285.539V17.5547ZM287.824 29H269.504C268.801 29 268.033 28.8763 267.199 28.6289C266.366 28.3815 265.591 27.9779 264.875 27.418C264.172 26.8451 263.579 26.1094 263.098 25.2109C262.629 24.2995 262.395 23.1862 262.395 21.8711V3.55078C262.395 3.19922 262.46 2.86719 262.59 2.55469C262.72 2.24219 262.896 1.96875 263.117 1.73438C263.352 1.5 263.625 1.31771 263.938 1.1875C264.25 1.05729 264.589 0.992188 264.953 0.992188H287.824V6.07031H267.473V21.8711C267.473 22.5352 267.648 23.043 268 23.3945C268.352 23.7461 268.866 23.9219 269.543 23.9219H287.824V29Z" fill="white"/>
<path d="M320.734 10.4062C320.734 11.5651 320.591 12.6003 320.305 13.5117C320.018 14.4232 319.628 15.2305 319.133 15.9336C318.651 16.6237 318.091 17.2161 317.453 17.7109C316.815 18.2057 316.145 18.6159 315.441 18.9414C314.751 19.2539 314.048 19.4818 313.332 19.625C312.629 19.7682 311.965 19.8398 311.34 19.8398L321.945 29H314.094L303.508 19.8398H299.855V14.7617H311.34C311.978 14.7096 312.557 14.5794 313.078 14.3711C313.612 14.1497 314.068 13.8568 314.445 13.4922C314.836 13.1276 315.135 12.6914 315.344 12.1836C315.552 11.6628 315.656 11.0703 315.656 10.4062V7.20312C315.656 6.91667 315.617 6.70182 315.539 6.55859C315.474 6.40234 315.383 6.29167 315.266 6.22656C315.161 6.14844 315.044 6.10286 314.914 6.08984C314.797 6.07682 314.686 6.07031 314.582 6.07031H297.824V29H292.746V3.55078C292.746 3.19922 292.811 2.86719 292.941 2.55469C293.072 2.24219 293.247 1.96875 293.469 1.73438C293.703 1.5 293.977 1.31771 294.289 1.1875C294.602 1.05729 294.94 0.992188 295.305 0.992188H314.582C315.715 0.992188 316.672 1.20052 317.453 1.61719C318.234 2.02083 318.866 2.53516 319.348 3.16016C319.842 3.77214 320.194 4.4362 320.402 5.15234C320.624 5.86849 320.734 6.53906 320.734 7.16406V10.4062Z" fill="white"/>
</g>
<defs>
<clipPath id="clip0_1_635">
<rect width="322" height="30" fill="white"/>
</clipPath>
</defs>
</svg>
