<svg width="672" height="672" viewBox="0 0 672 672" fill="none" xmlns="http://www.w3.org/2000/svg">
<g clip-path="url(#clip0_1_625)">
<path d="M336 385.5C363.338 385.5 385.5 363.338 385.5 336C385.5 308.662 363.338 286.5 336 286.5C308.662 286.5 286.5 308.662 286.5 336C286.5 363.338 308.662 385.5 336 385.5Z" stroke="#8DFD1B"/>
<path d="M336.5 415.5C380.683 415.5 416.5 379.683 416.5 335.5C416.5 291.317 380.683 255.5 336.5 255.5C292.317 255.5 256.5 291.317 256.5 335.5C256.5 379.683 292.317 415.5 336.5 415.5Z" stroke="#8DFD1B"/>
<path d="M335.605 464.71C406.908 464.71 464.71 406.908 464.71 335.605C464.71 264.302 406.908 206.5 335.605 206.5C264.302 206.5 206.5 264.302 206.5 335.605C206.5 406.908 264.302 464.71 335.605 464.71Z" stroke="#8DFD1B" stroke-opacity="0.75"/>
<path d="M335.664 543.828C450.63 543.828 543.828 450.63 543.828 335.664C543.828 220.698 450.63 127.5 335.664 127.5C220.698 127.5 127.5 220.698 127.5 335.664C127.5 450.63 220.698 543.828 335.664 543.828Z" stroke="#8DFD1B" stroke-opacity="0.5"/>
<path d="M335.951 671.402C521.215 671.402 671.402 521.215 671.402 335.951C671.402 150.687 521.215 0.5 335.951 0.5C150.687 0.5 0.5 150.687 0.5 335.951C0.5 521.215 150.687 671.402 335.951 671.402Z" stroke="#8DFD1B" stroke-opacity="0.25"/>
</g>
<defs>
<clipPath id="clip0_1_625">
<rect width="672" height="672" fill="white"/>
</clipPath>
</defs>
</svg>
